<?xml version="1.0" standalone="yes"?>
<svg xmlns="http://www.w3.org/2000/svg" xmlns:xlink= "http://www.w3.org/1999/xlink" width="600" height="600">
<path style="fill:#c5caf1; stroke:none;" d="M102 48.6096C80.4759 54.1511 69.5913 78.0214 66.7292 98C62.8983 124.74 66.6809 151.44 70.4244 178C72.5131 192.819 76.2567 209.011 74.8302 224C70.0317 274.424 35.1553 327.89 46.4244 379C51.4816 401.937 64.0143 422.384 82 437.561C111.217 462.215 147.911 475.498 181 493.861C227.714 519.786 271.549 562.479 329 547.115C361.243 538.492 381.331 514.141 408 496.355C459.759 461.836 540.758 445.016 547.83 371C552.888 318.075 518.394 269.933 517.71 217C517.245 181.05 529.635 146.313 527.089 110C525.724 90.5106 521.598 70.7108 505.999 57.3002C490.691 44.1398 474.662 47.8568 459 58.3588C435.757 73.9436 420.134 101.593 395 114.168C375.747 123.801 354.712 114.236 335 112.17C307.679 109.306 280.21 112.448 253 115.169C237.196 116.749 217.147 120.664 202 114.547C176.849 104.391 159.62 78.4646 139 61.8048C129.076 53.7865 115.457 45.1449 102 48.6096z"/>
<path style="fill:#1657E7; stroke:none;" d="M379 351C379.001 337.75 382.979 311.463 400 309.431C418.889 307.175 423.991 336.799 424 350C462.644 322.202 418.305 267.092 381 289.094C364.506 298.823 362.559 318.272 367.717 335C369.739 341.557 371.037 350.385 379 351M169 351C169 337.543 172.151 310.042 190 308.257C208.247 306.432 213.736 337.229 214 350C217.704 346.983 220.203 343.14 222.571 339C242.438 304.269 195.504 273.141 166 293.8C151.155 304.195 151.146 321.517 157.204 337C159.644 343.235 161.457 350.419 169 351z"/>
<path style="fill:#1657E7; stroke:none;" d="M259 386C261.092 433.97 331.912 433.887 334 386L259 386z"/>
</svg>
